Coordinates
version=1
nRows=15
nColumns=63
inDegrees=yes

Units are S.I. units (second, meters, Newtons, ...)
If the header above contains a line with 'inDegrees', this indicates whether rotational values are in degrees (yes) or radians (no).

endheader
time	pelvis_tilt	pelvis_list	pelvis_rotation	pelvis_tx	pelvis_ty	pelvis_tz	hip_flexion_r	hip_adduction_r	hip_rotation_r	knee_angle_r	knee_angle_r_beta	ankle_angle_r	subtalar_angle_r	mtp_angle_r	hip_flexion_l	hip_adduction_l	hip_rotation_l	knee_angle_l	knee_angle_l_beta	ankle_angle_l	subtalar_angle_l	mtp_angle_l	L5_S1_Flex_Ext	L5_S1_Lat_Bending	L5_S1_axial_rotation	L4_L5_Flex_Ext	L4_L5_Lat_Bending	L4_L5_axial_rotation	L3_L4_Flex_Ext	L3_L4_Lat_Bending	L3_L4_axial_rotation	L2_L3_Flex_Ext	L2_L3_Lat_Bending	L2_L3_axial_rotation	L1_L2_Flex_Ext	L1_L2_Lat_Bending	L1_L2_axial_rotation	L1_T12_Flex_Ext	L1_T12_Lat_Bending	L1_T12_axial_rotation	Abs_r3	Abs_r2	Abs_r1	Abs_t1	Abs_t2	neck_flexion	neck_bending	neck_rotation	arm_flex_r	arm_add_r	arm_rot_r	elbow_flex_r	pro_sup_r	wrist_flex_r	wrist_dev_r	arm_flex_l	arm_add_l	arm_rot_l	elbow_flex_l	pro_sup_l	wrist_flex_l	wrist_dev_l
3.711864	-0.573039	-11.989509	103.059429	0.173190	0.346190	0.545212	-9.581366	-1.205282	-11.997793	0.721708	0.012596	8.719142	-2.952369	0.000000	-10.293511	2.572146	-13.974325	0.276191	0.004820	15.809479	9.511394	0.000000	0.455264	0.454354	0.588281	0.845470	0.604291	0.625048	0.747953	1.104717	0.625048	0.520321	1.104717	0.514746	0.422758	0.926519	0.477978	0.260138	0.703795	0.441211	3.251903	5.139746	3.271842	0.000000	0.000000	28.291500	13.553025	7.228766	9.188277	-14.778716	107.777522	14.736828	7.943964	-6.184429	-8.766311	10.119262	-9.800806	138.006857	15.776353	6.121439	-5.700169	-1.421347
3.728814	-0.679933	-12.083242	102.597921	0.174046	0.345454	0.545167	-9.489148	-1.347294	-11.964105	0.726882	0.012686	8.551062	-3.136894	0.000000	-10.210984	2.752636	-14.000449	0.277466	0.004843	16.241815	9.381951	0.000000	0.460773	0.443244	0.627842	0.855702	0.589515	0.667082	0.757004	1.077703	0.667082	0.526618	1.077703	0.549362	0.427874	0.903863	0.510121	0.263286	0.686585	0.470881	3.291257	5.014065	3.491868	0.000000	0.000000	28.296361	13.875664	7.795924	9.079325	-14.926984	107.000991	14.753059	7.958294	-5.910212	-8.629842	10.060723	-9.455100	141.362207	15.300944	6.349403	-5.709350	-1.710376
3.745763	-0.768680	-12.170802	102.202070	0.174839	0.344698	0.545214	-9.412028	-1.465588	-12.182339	0.733385	0.012800	8.364679	-3.098577	0.000000	-10.114865	2.903180	-13.947740	0.278447	0.004860	16.695406	9.218950	0.000000	0.462855	0.429701	0.667560	0.859568	0.571502	0.709282	0.760424	1.044775	0.709282	0.528997	1.044775	0.584115	0.429807	0.876246	0.542392	0.264475	0.665607	0.500670	3.306127	4.860861	3.712766	0.000000	0.000000	28.301202	14.136440	8.147049	8.977618	-15.018642	106.658805	14.674396	7.925329	-5.623013	-8.483782	10.101504	-9.008518	145.520356	14.787956	6.522972	-5.716274	-2.062269
3.762712	-0.838775	-12.244781	101.904177	0.175537	0.343905	0.545336	-9.363878	-1.552704	-12.641027	0.737654	0.012874	8.188974	-2.844643	0.000000	-10.013384	3.015461	-13.817329	0.280788	0.004901	17.185249	9.047452	0.000000	0.460955	0.413197	0.696938	0.856039	0.549552	0.740497	0.757303	1.004648	0.740497	0.526825	1.004648	0.609821	0.428043	0.842592	0.566262	0.263390	0.640043	0.522703	3.292554	4.674170	3.876160	0.000000	0.000000	28.306854	14.416975	8.371949	8.907141	-15.042200	106.851667	14.516056	7.806624	-5.337352	-8.363189	10.207384	-8.435909	151.013905	14.131575	6.615254	-5.757994	-2.479344
3.779661	-0.906414	-12.311300	101.672468	0.176207	0.343061	0.545497	-9.338788	-1.629656	-13.297266	0.743140	0.012970	8.050675	-2.385418	0.000000	-9.913919	3.108990	-13.650851	0.282729	0.004935	17.687856	8.890979	0.000000	0.455703	0.390764	0.721067	0.846286	0.519716	0.766134	0.748675	0.950104	0.766134	0.520823	0.950104	0.630934	0.423166	0.796846	0.585867	0.260389	0.605293	0.540800	3.255043	4.420400	4.010360	0.000000	0.000000	28.313653	14.730502	8.462165	8.859756	-14.996604	107.383758	14.321358	7.492745	-5.018478	-8.287406	10.390864	-7.854277	156.778244	13.479942	6.552246	-5.766818	-2.865816
3.796610	-0.979425	-12.370205	101.523974	0.176828	0.342165	0.545689	-9.340449	-1.699455	-14.064058	0.746550	0.013030	7.970394	-1.830128	0.000000	-9.820118	3.189379	-13.462571	0.284785	0.004970	18.195226	8.775752	0.000000	0.447407	0.360895	0.738214	0.830879	0.479991	0.784353	0.735045	0.877480	0.784353	0.511341	0.877480	0.645937	0.415462	0.735937	0.599799	0.255648	0.559027	0.553661	3.195783	4.082518	4.105726	0.000000	0.000000	28.321646	15.000349	8.323915	8.794163	-14.927659	107.582127	14.192147	7.278369	-4.704705	-8.230167	10.637388	-7.315214	162.482149	12.854445	6.498424	-5.818414	-3.194787
3.813559	-1.060530	-12.422466	101.449941	0.177411	0.341228	0.545903	-9.364726	-1.765689	-14.851022	0.746885	0.013036	7.959788	-1.253884	0.000000	-9.734805	3.263503	-13.237086	0.287055	0.005010	18.691106	8.643124	0.000000	0.436331	0.322949	0.754805	0.810311	0.429523	0.801980	0.716849	0.785219	0.801980	0.498683	0.785219	0.660454	0.405177	0.658559	0.613279	0.249320	0.500249	0.566104	3.116672	3.653269	4.197998	0.000000	0.000000	28.329759	15.102827	7.815596	8.703640	-14.818961	107.678143	14.099854	7.018080	-4.399624	-8.252750	10.943270	-6.883894	167.487837	12.324553	6.375597	-5.832785	-3.461135
3.830508	-1.147979	-12.468957	101.452713	0.177967	0.340279	0.546123	-9.409273	-1.828202	-15.674100	0.742193	0.012954	8.063114	-0.560663	0.000000	-9.661061	3.325585	-12.916807	0.288177	0.005030	19.149911	8.468236	0.000000	0.423454	0.278551	0.766903	0.786396	0.370473	0.814834	0.695692	0.677270	0.814834	0.483965	0.677270	0.671040	0.393219	0.568022	0.623109	0.241961	0.431476	0.575177	3.024687	3.151029	4.265284	0.000000	0.000000	28.338403	15.160216	7.173969	8.591634	-14.671757	107.651027	14.044679	6.713764	-4.115908	-8.350414	11.265645	-6.548705	172.014888	11.809662	6.157341	-5.892023	-3.664775
3.847458	-1.237032	-12.509418	101.493818	0.178511	0.339343	0.546339	-9.464295	-1.887734	-16.291190	0.733205	0.012797	8.237150	-0.029430	0.000000	-9.599602	3.382592	-12.606122	0.289704	0.005056	19.575530	8.301018	0.000000	0.408366	0.228171	0.788889	0.758376	0.303468	0.838194	0.670904	0.554776	0.838194	0.466721	0.554776	0.690278	0.379208	0.465287	0.640972	0.233340	0.353438	0.591667	2.916915	2.581121	4.387564	0.000000	0.000000	28.346601	14.900072	6.076263	8.417723	-14.504000	107.298371	14.043635	6.404182	-3.837394	-8.537963	11.577122	-6.359892	175.380061	11.361451	5.862414	-6.007507	-3.763719
3.864407	-1.319725	-12.528894	101.562736	0.179035	0.338466	0.546527	-9.539462	-1.934035	-16.618511	0.718523	0.012541	8.444609	0.243614	0.000000	-9.565827	3.426051	-12.359347	0.292500	0.005105	19.969961	8.200880	0.000000	0.389883	0.174390	0.820339	0.724052	0.231939	0.871611	0.640539	0.424013	0.871611	0.445597	0.424013	0.717797	0.362045	0.355617	0.666526	0.222779	0.270131	0.615255	2.784895	1.972740	4.562481	0.000000	0.000000	28.354249	14.256903	4.537717	8.204360	-14.328448	106.781146	14.106832	6.091549	-3.587744	-8.840663	11.837744	-6.348814	177.029088	11.019018	5.451843	-6.092662	-3.821272
3.881356	-1.388121	-12.548052	101.659582	0.179527	0.337683	0.546674	-9.608875	-1.966911	-16.856412	0.698238	0.012187	8.713222	0.567086	0.000000	-9.536696	3.453864	-12.091672	0.294694	0.005143	20.293601	8.046328	0.000000	0.372476	0.117923	0.861567	0.691725	0.156838	0.915415	0.611941	0.286718	0.915415	0.425703	0.286718	0.753871	0.345881	0.240469	0.700023	0.212833	0.182663	0.646175	2.660558	1.333969	4.791779	0.000000	0.000000	28.361266	13.217307	2.545677	7.916453	-14.138509	105.946046	14.211105	6.068878	-3.453737	-9.256582	12.041381	-6.486111	177.205691	10.726850	5.195944	-6.263908	-3.801769
3.898305	-1.442983	-12.548617	101.766667	0.179989	0.337050	0.546778	-9.685171	-1.983701	-16.894094	0.675307	0.011786	8.987505	0.773487	0.000000	-9.530060	3.466864	-11.847218	0.298480	0.005209	20.558609	7.872472	0.000000	0.354190	0.060851	0.907725	0.657767	0.080932	0.964458	0.581899	0.147953	0.964458	0.404804	0.147953	0.794260	0.328901	0.124088	0.737527	0.202384	0.094258	0.680794	2.529947	0.688360	5.048496	0.000000	0.000000	28.368681	11.781095	0.223301	7.591979	-13.951497	104.881249	14.377590	6.318049	-3.414164	-9.735967	12.159286	-6.789929	175.586009	10.523749	5.064022	-6.446736	-3.707319
3.915254	-1.487305	-12.520270	101.863259	0.180441	0.336611	0.546862	-9.773786	-1.985607	-16.641729	0.649138	0.011330	9.205101	0.717578	0.000000	-9.554044	3.468337	-11.684608	0.304903	0.005322	20.775122	7.746073	0.000000	0.333740	0.004905	0.953542	0.619789	0.006523	1.013139	0.548301	0.011926	1.013139	0.381431	0.011926	0.834350	0.309911	0.010002	0.774753	0.190699	0.007598	0.715157	2.383871	0.055485	5.303317	0.000000	0.000000	28.375635	10.148298	-2.096312	7.316744	-13.755926	104.167117	14.579491	6.367714	-3.387637	-10.295797	12.228038	-7.221861	172.640239	10.412779	4.783547	-6.562901	-3.588787
3.932203	-1.522096	-12.457881	101.940912	0.180892	0.336386	0.546934	-9.875903	-1.973840	-16.168902	0.622666	0.010868	9.372757	0.483548	0.000000	-9.611704	3.458904	-11.581198	0.313877	0.005478	20.947546	7.630796	0.000000	0.311351	-0.048737	0.994126	0.578209	-0.064820	1.056258	0.511518	-0.118499	1.056258	0.355843	-0.118499	0.869860	0.289120	-0.099385	0.807727	0.177906	-0.075494	0.745594	2.223947	-0.551324	5.529028	0.000000	0.000000	28.382833	8.445507	-4.190455	7.086371	-13.572473	103.526550	14.835517	6.382433	-3.344916	-10.796827	12.223903	-7.774820	168.360639	10.377989	4.602456	-6.603173	-3.448994
3.949153	-1.553981	-12.345872	102.018064	0.181321	0.336394	0.547013	-10.010643	-1.946476	-15.559456	0.595709	0.010397	9.497136	0.126022	0.000000	-9.716744	3.436695	-11.490748	0.325728	0.005685	21.082179	7.505540	0.000000	0.285560	-0.099839	1.022610	0.530313	-0.132786	1.086523	0.469146	-0.242749	1.086523	0.326366	-0.242749	0.894783	0.265171	-0.203592	0.830870	0.163169	-0.154651	0.766957	2.039723	-1.129399	5.687447	0.000000	0.000000	28.387768	6.747607	-5.933229	6.899680	-13.416989	102.755144	15.154919	6.522494	-3.282996	-11.131062	12.136336	-8.451933	162.701404	10.423210	4.755709	-6.547901	-3.295470
